Coordinates
version=1
nRows=8
nColumns=28
inDegrees=yes

Units are S.I. units (second, meters, Newtons, ...)
Angles are in degrees.

endheader
time	pelvis_tilt	pelvis_list	pelvis_rotation	pelvis_tx	pelvis_ty	pelvis_tz	hip_flexion_r	hip_adduction_r	hip_rotation_r	knee_angle_r	ankle_angle_r	subtalar_angle_r	mtp_angle_r	hip_flexion_l	hip_adduction_l	hip_rotation_l	knee_angle_l	socket_flexion	socket_adduction	socket_rotation	socket_tx	socket_ty	socket_tz	foot_flex	lumbar_extension	lumbar_bending	lumbar_rotation
      0.63333333	     -4.03166712	     -0.18979431	     11.13098961	     -0.04441473	      0.98756335	      0.28901746	     29.30389845	     -2.04873664	     -8.76424800	     -7.65956973	     11.89865963	    -20.32214038	     -9.93465474	    -16.47196275	     -1.93600256	     19.79176974	     -7.43732512	      0.00000000	      0.00000000	      0.00000000	      0.00000000	      0.00113463	      0.00000000	      7.53139328	     -7.16045090	     -0.24006212	     -9.29663255
      0.63750000	     -3.92612539	     -0.33255790	     11.09828489	     -0.03780631	      0.98667461	      0.28914813	     29.51173361	     -1.83255466	     -8.61136116	     -8.64640204	     11.47106899	    -20.46902182	     -9.83101991	    -16.79178666	     -2.10892253	     19.64639247	     -7.75464957	      0.00000000	      0.00000000	      0.00000000	      0.00000000	      0.00116381	      0.00000000	      7.52295665	     -7.17656588	      0.06712669	     -9.39119684
      0.64166667	     -3.84500785	     -0.44330391	     11.05494625	     -0.03123144	      0.98578352	      0.28934554	     29.73390102	     -1.63993719	     -8.36561209	     -9.64225268	     11.05567997	    -20.56223788	     -9.57056852	    -17.07150498	     -2.23851278	     19.48349537	     -8.08606530	      0.00000000	      0.00000000	      0.00000000	      0.00000000	      0.00124200	      0.00000000	      7.45169686	     -7.18718614	      0.31622364	     -9.41163329
      0.64583333	     -3.76736180	     -0.54744840	     10.96330436	     -0.02461179	      0.98487539	      0.28966387	     29.99770596	     -1.43616825	     -8.15147275	    -10.71444052	     10.59181006	    -20.62340260	     -9.23681343	    -17.34349689	     -2.34497870	     19.30992566	     -8.45555793	      0.00000000	      0.00000000	      0.00000000	      0.00000000	      0.00129663	      0.00000000	      7.36976688	     -7.19162881	      0.54162563	     -9.40339302
      0.65000000	     -3.69908205	     -0.66233414	     10.87773841	     -0.01799011	      0.98398172	      0.28996288	     30.26286098	     -1.22960125	     -7.92905792	    -11.79143256	     10.10639216	    -20.64392436	     -8.78764717	    -17.57939367	     -2.45520158	     19.12095605	     -8.85861515	      0.00000000	      0.00000000	      0.00000000	      0.00000000	      0.00133213	      0.00000000	      7.25889811	     -7.19544708	      0.77097508	     -9.36008741
      0.65416667	     -3.65298844	     -0.71086361	     10.84496394	     -0.01114956	      0.98307522	      0.28997710	     30.54525293	     -1.20412577	     -8.10360333	    -12.81694187	      7.95590792	    -21.26750515	     -1.22068783	    -17.79709724	     -2.48335091	     19.01006519	     -9.29145209	      0.00000000	      0.00000000	      0.00000000	      0.00000000	      0.00148716	      0.00000000	      7.12148630	     -7.12110198	      0.95828202	     -9.27253891
      0.65833333	     -3.55846674	     -0.84261398	     10.89569385	     -0.00468929	      0.98242188	      0.29006541	     30.66119442	     -1.02504347	     -7.85178112	    -13.69218515	      7.63230692	    -21.21333856	     -1.23668533	    -17.94809406	     -2.62615379	     19.03250233	     -9.85571072	      0.00000000	      0.00000000	      0.00000000	      0.00000000	      0.00147239	      0.00000000	      6.95238688	     -7.15933434	      1.23993316	     -9.28084730
      0.66250000	     -3.44665012	     -0.98805419	     10.82171010	      0.00189433	      0.98172184	      0.29031286	     30.87134489	     -0.80411001	     -7.71940865	    -14.78055367	      7.20524333	    -21.18415579	     -1.24108038	    -18.14078036	     -2.74979230	     18.87757340	    -10.40213745	      0.00000000	      0.00000000	      0.00000000	      0.00000000	      0.00149046	      0.00000000	      6.76316264	     -7.21372970	      1.53945895	     -9.30518666
